<svg width="19" height="18" viewBox="0 0 19 18" fill="none" xmlns="http://www.w3.org/2000/svg">
<path fill-rule="evenodd" clip-rule="evenodd" d="M16.5213 2.63816L16.5213 14.9576L10.1815 8.79757L16.5213 2.63816ZM2.7175 1.54519L15.3964 1.54519L9.05661 7.7046L2.7175 1.54519ZM1.59052 14.9576L1.59052 2.63686L7.93168 8.79757L1.59052 14.9576ZM2.98154e-06 0.772243L2.98154e-06 16.8235C2.98154e-06 16.9239 0.0207855 17.0242 0.0617107 17.1187C0.100654 17.2106 0.15699 17.2921 0.228097 17.3625C0.23008 17.3644 0.230783 17.3677 0.233469 17.3703C0.238137 17.3749 0.244851 17.3762 0.250222 17.3814C0.320626 17.4459 0.401134 17.5 0.49168 17.5365C0.583634 17.5736 0.682238 17.5912 0.780139 17.5932C0.78551 17.5932 0.790243 17.5964 0.79555 17.5964C0.801625 17.5964 0.806293 17.5932 0.813007 17.5925C0.910972 17.5906 1.00753 17.5736 1.09948 17.5365C1.19067 17.5 1.27118 17.4459 1.34094 17.3814C1.34561 17.3762 1.35303 17.3749 1.3577 17.3703L9.05655 9.89048L16.7547 17.3703C16.7587 17.3749 16.7661 17.3762 16.7708 17.3814C16.8413 17.4459 16.9217 17.5 17.0123 17.5365C17.1049 17.5736 17.2021 17.5912 17.3001 17.5932C17.3061 17.5932 17.3108 17.5964 17.3168 17.5964C17.3222 17.5964 17.3269 17.5932 17.3329 17.5932C17.4302 17.5912 17.5282 17.5736 17.6207 17.5365C17.7106 17.5 17.7918 17.4459 17.8615 17.3814C17.8669 17.3762 17.8743 17.3749 17.8783 17.3703C17.881 17.3677 17.8817 17.3644 17.8837 17.3625C17.9548 17.2921 18.0118 17.2106 18.05 17.1187C18.091 17.0242 18.1118 16.9239 18.1118 16.8235L18.1118 0.772243C18.1118 0.671878 18.091 0.571513 18.05 0.477044C18.0111 0.384499 17.9534 0.301698 17.8823 0.231312C17.8803 0.229388 17.8803 0.227402 17.8783 0.226098C17.875 0.221567 17.8689 0.220885 17.8649 0.216974C17.7938 0.151181 17.712 0.0964359 17.6207 0.0592566C17.5235 0.0201532 17.4202 -1.86373e-05 17.3168 -1.86373e-05L0.79555 -1.86373e-05C0.778796 -1.86373e-05 0.765368 0.00780168 0.749318 0.00842237C0.662096 0.0143189 0.575577 0.0260501 0.493727 0.0586363C0.297158 0.137464 0.141514 0.289347 0.0610704 0.480954C0.0530132 0.49852 0.0549956 0.518071 0.0489847 0.535699C0.0234704 0.611919 2.98154e-06 0.688823 2.98154e-06 0.772243Z" fill="#141414"/>
</svg>
